<?xml version="1.0" encoding="utf-8"?>
<svg style="max-width: 100%;" enable-background="new 0 0 100 100" viewBox="0 0 100 100" x="0px" y="0px" height="100%" version="1.1" xmlns="http://www.w3.org/2000/svg">
  <path d="M 91.25 24.75 c -7.875 -6 -25.375 -6.293 -41.25 -6.293 v 0 c -15.875 0 -33.375 0.293 -41.25 6.293 s -8.125 19 -8.125 26.75 s 0.25 20.75 8.125 26.75 S 34.125 84.544 50 84.544 v -0.001 c 15.875 0 33.375 -0.293 41.25 -6.293 s 8.125 -19 8.125 -26.75 S 99.125 30.75 91.25 24.75 Z M 65.646 53.248 l 0.003 0.004 L 38.823 67.548 c -0.144 0.104 -0.301 0.187 -0.47 0.251 l -0.033 0.018 l -0.002 -0.007 c -0.217 0.078 -0.448 0.128 -0.692 0.128 c -1.139 0 -2.062 -0.924 -2.062 -2.062 V 37.062 c 0 -1.139 0.924 -2.062 2.062 -2.062 c 0.321 0 0.622 0.08 0.893 0.211 l 0.001 -0.001 l 27.129 14.542 l -0.001 0.002 c 0.585 0.364 0.978 1.008 0.978 1.747 C 66.625 52.24 66.231 52.884 65.646 53.248 Z" style="fill: rgb(255, 255, 255);"/>
</svg>