<?xml version="1.0" encoding="utf-8"?>
<svg style="max-width: 100%;" enable-background="new 0 0 100 100" viewBox="0 0 100 100" x="0px" y="0px" height="100%" version="1.1" xmlns="http://www.w3.org/2000/svg">
                                  <g>
  <path d="M 81.032 50 c 0 1.776 -1.439 3.215 -3.215 3.215 H 17.795 c -1.776 0 -3.215 -1.439 -3.215 -3.215 l 0 0 c 0 -1.776 1.439 -3.215 3.215 -3.215 h 60.023 C 79.593 46.785 81.032 48.224 81.032 50 L 81.032 50 Z" style="fill: rgb(255, 255, 255);"/>
  <path d="M 80.091 52.273 c -1.256 1.256 -3.291 1.256 -4.547 0 L 65.435 42.165 c -1.256 -1.256 -1.256 -3.291 0 -4.547 l 0 0 c 1.256 -1.256 3.291 -1.256 4.547 0 l 10.109 10.109 C 81.346 48.982 81.346 51.018 80.091 52.273 L 80.091 52.273 Z" style="fill: rgb(255, 255, 255);"/>
  <path d="M 65.435 62.382 c -1.256 -1.256 -1.256 -3.291 0 -4.547 l 10.109 -10.109 c 1.256 -1.256 3.291 -1.256 4.547 0 l 0 0 c 1.256 1.256 1.256 3.291 0 4.547 L 69.982 62.382 C 68.726 63.638 66.691 63.638 65.435 62.382 L 65.435 62.382 Z" style="fill: rgb(255, 255, 255);"/>
                                </g>

</svg>