<?xml version="1.0" encoding="utf-8"?>
<svg style="max-width: 100%;" enable-background="new 0 0 90 90" viewBox="0 0 90 90" x="0px" y="0px" height="100%" version="1.1" xmlns="http://www.w3.org/2000/svg">
  <g fill="currentColor">
    <path d="M 45.991 58.871 c -11.625 0 -21.083 -9.458 -21.083 -21.083 c 0 -11.625 9.458 -21.083 21.083 -21.083 c 4.225 0 8.301 1.246 11.789 3.602 c 1.145 0.773 1.445 2.327 0.672 3.471 c -0.772 1.144 -2.328 1.444 -3.471 0.672 c -2.658 -1.796 -5.768 -2.745 -8.99 -2.745 c -8.868 0 -16.083 7.214 -16.083 16.083 c 0 8.868 7.214 16.083 16.083 16.083 s 16.083 -7.215 16.083 -16.083 c 0 -2.798 -0.729 -5.553 -2.108 -7.966 c -0.685 -1.199 -0.269 -2.726 0.931 -3.411 c 1.198 -0.686 2.725 -0.27 3.411 0.93 c 1.81 3.167 2.767 6.78 2.767 10.447 C 67.074 49.413 57.616 58.871 45.991 58.871 Z" style="fill: rgb(255, 255, 255);"/>
  </g>
  <g fill="currentColor">
    <path d="M 45.991 86.823 c -0.554 0 -1.108 -0.184 -1.565 -0.551 C 27.265 72.488 19.441 59.614 15.9 51.242 c -0.94 -2.028 -1.691 -4.238 -2.2 -6.494 c -0.172 -0.723 -0.231 -1.125 -0.231 -1.125 c -0.38 -1.972 -0.582 -4.085 -0.582 -6.188 c 0 -18.253 14.85 -33.104 33.104 -33.104 c 18.253 0 33.104 14.851 33.104 33.104 c 0 2.097 -0.2 4.205 -0.594 6.264 c -0.036 0.226 -0.103 0.563 -0.227 1.081 c -0.5 2.221 -1.251 4.431 -2.226 6.539 c -3.508 8.297 -11.331 21.169 -28.492 34.954 C 47.1 86.64 46.545 86.823 45.991 86.823 Z M 18.414 42.879 c 0.013 0.078 0.06 0.331 0.157 0.74 c 0.438 1.941 1.075 3.815 1.901 5.6 c 3.242 7.661 10.26 19.241 25.519 31.879 c 15.26 -12.639 22.276 -24.215 25.485 -31.802 c 0.86 -1.864 1.497 -3.739 1.928 -5.647 c 0.114 -0.482 0.16 -0.744 0.168 -0.792 c 0.352 -1.839 0.522 -3.635 0.522 -5.423 c 0 -15.497 -12.607 -28.104 -28.104 -28.104 S 17.888 21.938 17.888 37.435 c 0 1.789 0.171 3.584 0.508 5.338 C 18.403 42.808 18.409 42.844 18.414 42.879 Z" style="fill: rgb(255, 255, 255);"/>
  </g>
</svg>