<?xml version="1.0" encoding="utf-8"?>
<svg style="max-width: 100%;" enable-background="new 0 0 100 100" viewBox="0 0 100 100" x="0px" y="0px" height="100%" version="1.1" xmlns="http://www.w3.org/2000/svg">
  <g fill="currentColor">
    <path d="M 66.937 6.331 c -0.546 -0.745 -1.421 -1.235 -2.415 -1.235 h -9.778 c -0.885 0 -1.672 0.39 -2.221 1 H 35.475 c -7.02 0 -12.73 5.711 -12.73 12.73 v 63.347 c 0 7.02 5.711 12.73 12.73 12.73 h 29.06 c 7.014 0 12.72 -5.711 12.72 -12.73 V 18.826 C 77.255 12.629 72.806 7.459 66.937 6.331 Z M 71.255 82.174 c 0 3.711 -3.015 6.73 -6.72 6.73 h -29.06 c -3.711 0 -6.73 -3.02 -6.73 -6.73 V 18.826 c 0 -3.711 3.019 -6.73 6.73 -6.73 h 29.06 c 3.706 0 6.72 3.019 6.72 6.73 V 82.174 Z" style="fill: rgb(255, 255, 255);"/>
    <path d="M 65.183 65.587 H 34.817 c -1.657 0 -3 1.343 -3 3 s 1.343 3 3 3 h 30.366 c 1.657 0 3 -1.343 3 -3 S 66.84 65.587 65.183 65.587 Z" style="fill: rgb(255, 255, 255);"/>
    <path d="M 50 76.223 c -2.692 0 -4.882 2.19 -4.882 4.882 s 2.19 4.882 4.882 4.882 s 4.882 -2.19 4.882 -4.882 S 52.692 76.223 50 76.223 Z M 50 82.223 c -0.617 0 -1.118 -0.502 -1.118 -1.118 s 0.501 -1.118 1.118 -1.118 s 1.118 0.502 1.118 1.118 S 50.617 82.223 50 82.223 Z" style="fill: rgb(255, 255, 255);"/>
  </g>
</svg>