<?xml version="1.0" encoding="utf-8"?>
<svg style="max-width: 100%;" enable-background="new 0 0 100 100" viewBox="0 0 100 100" x="0px" y="0px" height="100%" version="1.1" xmlns="http://www.w3.org/2000/svg">
                                  <g>
                                    <path
                                        d="M18 6h-1V5c0-.6-.4-1-1-1s-1 .4-1 1v1H9V5c0-.6-.4-1-1-1s-1 .4-1 1v1H6c-1.1 0-2 .9-2 2v10c0 1.1.9 2 2 2h12c1.1 0 2-.9 2-2V8c0-1.1-.9-2-2-2zm1 12c0 .6-.4 1-1 1H6c-.6 0-1-.4-1-1v-8h14v8z">
                                    </path>
                                    <path
                                        d="M7.5 14h1c.3 0 .5-.2.5-.5v-1c0-.3-.2-.5-.5-.5h-1c-.3 0-.5.2-.5.5v1c0 .3.2.5.5.5zm4 0h1c.3 0 .5-.2.5-.5v-1c0-.3-.2-.5-.5-.5h-1c-.3 0-.5.2-.5.5v1c0 .3.2.5.5.5zm4 0h1c.3 0 .5-.2.5-.5v-1c0-.3-.2-.5-.5-.5h-1c-.3 0-.5.2-.5.5v1c0 .3.2.5.5.5zm-8 3h1c.3 0 .5-.2.5-.5v-1c0-.3-.2-.5-.5-.5h-1c-.3 0-.5.2-.5.5v1c0 .3.2.5.5.5zm4 0h1c.3 0 .5-.2.5-.5v-1c0-.3-.2-.5-.5-.5h-1c-.3 0-.5.2-.5.5v1c0 .3.2.5.5.5zm4 0h1c.3 0 .5-.2.5-.5v-1c0-.3-.2-.5-.5-.5h-1c-.3 0-.5.2-.5.5v1c0 .3.2.5.5.5z">
                                    </path>
                                </g>

</svg>