<?xml version="1.0" encoding="utf-8"?>
<svg class="si5ff628bfd3ac4d00224edbce34ca33cc1a524d80abd683db1e11cd8e1609967814421 svgIcon_1J7 darkTheme_3jZ" viewBox="0 0 32 32" xmlns="http://www.w3.org/2000/svg">
  <g>
    <path class="logo_2gS" d="M 12.7045 8 C 10.1222 8 8 10.1193 8 12.7045 L 8 19.2955 C 8 21.8778 10.1193 24 12.7045 24 L 19.2955 24 C 21.8778 24 24 21.8807 24 19.2955 L 24 12.7045 C 24 10.1222 21.8807 8 19.2955 8 L 12.7045 8 Z M 12.7045 9.45455 L 19.2955 9.45455 C 21.0938 9.45455 22.5455 10.9063 22.5455 12.7045 L 22.5455 19.2955 C 22.5455 21.0938 21.0938 22.5455 19.2955 22.5455 L 12.7045 22.5455 C 10.9063 22.5455 9.45455 21.0938 9.45455 19.2955 L 9.45455 12.7045 C 9.45455 10.9063 10.9063 9.45455 12.7045 9.45455 Z M 20.2955 11.0455 C 19.929 11.0455 19.6364 11.3381 19.6364 11.7045 C 19.6364 12.071 19.929 12.3636 20.2955 12.3636 C 20.6619 12.3636 20.9545 12.071 20.9545 11.7045 C 20.9545 11.3381 20.6619 11.0455 20.2955 11.0455 Z M 16 11.6364 C 13.5994 11.6364 11.6364 13.5994 11.6364 16 C 11.6364 18.4006 13.5994 20.3636 16 20.3636 C 18.4006 20.3636 20.3636 18.4006 20.3636 16 C 20.3636 13.5994 18.4006 11.6364 16 11.6364 Z M 16 13.0909 C 17.6165 13.0909 18.9091 14.3835 18.9091 16 C 18.9091 17.6165 17.6165 18.9091 16 18.9091 C 14.3835 18.9091 13.0909 17.6165 13.0909 16 C 13.0909 14.3835 14.3835 13.0909 16 13.0909 Z" style="fill: rgb(55, 55, 55);"/>
    <path class="insta-mask-logo-hover_19f" style="fill: rgb(55, 55, 55);" d="M 12.7045 8 C 10.1222 8 8 10.1193 8 12.7045 L 8 19.2955 C 8 21.8778 10.1193 24 12.7045 24 L 19.2955 24 C 21.8778 24 24 21.8807 24 19.2955 L 24 12.7045 C 24 10.1222 21.8807 8 19.2955 8 L 12.7045 8 Z M 12.7045 9.45455 L 19.2955 9.45455 C 21.0938 9.45455 22.5455 10.9063 22.5455 12.7045 L 22.5455 19.2955 C 22.5455 21.0938 21.0938 22.5455 19.2955 22.5455 L 12.7045 22.5455 C 10.9063 22.5455 9.45455 21.0938 9.45455 19.2955 L 9.45455 12.7045 C 9.45455 10.9063 10.9063 9.45455 12.7045 9.45455 Z M 20.2955 11.0455 C 19.929 11.0455 19.6364 11.3381 19.6364 11.7045 C 19.6364 12.071 19.929 12.3636 20.2955 12.3636 C 20.6619 12.3636 20.9545 12.071 20.9545 11.7045 C 20.9545 11.3381 20.6619 11.0455 20.2955 11.0455 Z M 16 11.6364 C 13.5994 11.6364 11.6364 13.5994 11.6364 16 C 11.6364 18.4006 13.5994 20.3636 16 20.3636 C 18.4006 20.3636 20.3636 18.4006 20.3636 16 C 20.3636 13.5994 18.4006 11.6364 16 11.6364 Z M 16 13.0909 C 17.6165 13.0909 18.9091 14.3835 18.9091 16 C 18.9091 17.6165 17.6165 18.9091 16 18.9091 C 14.3835 18.9091 13.0909 17.6165 13.0909 16 C 13.0909 14.3835 14.3835 13.0909 16 13.0909 Z"/>
  </g>
</svg>