<?xml version="1.0" encoding="utf-8"?>
<svg style="max-width: 100%;" viewBox="0 0 48 48" x="0px" y="0px" height="100%" version="1.1" xmlns="http://www.w3.org/2000/svg">
  <style fill="currentColor" type="text/css">
	.st0{fill:#010101;}
</style>
  <g fill="currentColor">
    <path d="M 34.6 6.3 c -0.2 -0.7 -0.8 -1.2 -1.5 -1.2 H 14.9 c -0.7 0 -1.3 0.5 -1.5 1.2 l -1 4.3 h -2.3 v 32.2 h 27.7 V 10.7 h -2.3 L 34.6 6.3 Z M 16.1 8.2 h 15.9 l 0.6 2.5 h -17 L 16.1 8.2 Z M 28.5 25.6 l -2.8 2.8 c -0.6 0.6 -2.4 1.6 -4.2 0 l -5.8 -5.8 c -1.2 -1.2 -1.2 -3.1 0 -4.2 l 2.8 -2.8 c 1.2 -1.2 3.1 -1.2 4.2 0 l 5.8 5.8 C 29.7 22.5 29.7 24.4 28.5 25.6 Z" style="fill: rgb(80, 81, 85);"/>
    <path d="M 0 13.7 v 26.2 c 0 1.7 1.3 3 3 3 h 5.2 V 10.7 H 3 C 1.3 10.7 0 12 0 13.7 Z" style="fill: rgb(80, 81, 85);"/>
    <path d="M 19.9 16.9 l -2.8 2.8 c -0.4 0.4 -0.4 1 0 1.4 l 5.8 5.8 c 0.4 0.4 1 0.4 1.4 0 l 2.8 -2.8 c 0.4 -0.4 0.4 -1 0 -1.4 l -5.8 -5.8 C 20.9 16.5 20.3 16.5 19.9 16.9 Z" style="fill: rgb(80, 81, 85);"/>
    <path d="M 45 10.7 h -5.2 v 32.2 H 45 c 1.7 0 3 -1.3 3 -3 V 13.7 C 48 12 46.7 10.7 45 10.7 Z" style="fill: rgb(80, 81, 85);"/>
  </g>
</svg>