<?xml version="1.0" encoding="utf-8"?>
<svg style="max-width: 100%;" viewBox="0 0 48 48" x="0px" y="0px" height="100%" version="1.1" xmlns="http://www.w3.org/2000/svg">
  <style fill="currentColor" type="text/css">
	.st0{fill:#010101;}
</style>
  <g fill="currentColor">
    <rect x="5.4" y="0" width="7.2" height="3.2" style="fill: rgb(80, 81, 85);"/>
    <rect x="10" y="27.1" width="8" height="11.4" style="fill: rgb(80, 81, 85);"/>
    <path d="M 12.6 13.8 V 5.2 H 5.4 v 8.6 C 2.2 15.2 0 18.4 0 22 v 23 c 0 1.7 1.3 3 3 3 h 12 c 1.7 0 3 -1.3 3 -3 v -4.6 H 9 c -0.6 0 -1 -0.4 -1 -1 V 26.1 c 0 -0.6 0.4 -1 1 -1 h 9 v -3 C 18 18.4 15.7 15.2 12.6 13.8 Z" style="fill: rgb(80, 81, 85);"/>
    <path d="M 47.6 24.4 c 0.8 -0.9 0.2 -2.4 -1.1 -2.4 H 22.1 c -1.2 0 -1.9 1.5 -1.1 2.4 l 11.5 13.2 v 7 h -2.8 V 48 h 9.2 v -3.4 h -2.8 v -7 L 47.6 24.4 Z M 31.1 27.6 c -0.6 -0.6 -1.6 -0.6 -2.2 0 c -0.6 0.6 -1.6 0.6 -2.2 0 l -3 -3.5 H 45 l -3 3.5 h 0 c -0.6 0.6 -1.6 0.6 -2.2 0 c -0.6 -0.6 -1.6 -0.6 -2.2 0 c -0.6 0.6 -1.6 0.6 -2.2 0 c -0.6 -0.6 -1.6 -0.6 -2.2 0 C 32.6 28.2 31.7 28.2 31.1 27.6 Z" style="fill: rgb(80, 81, 85);"/>
  </g>
</svg>