<?xml version="1.0" encoding="utf-8"?>
<svg style="max-width: 100%;" viewBox="0 0 48 48" x="0px" y="0px" height="100%" version="1.1" xmlns="http://www.w3.org/2000/svg">
  <style fill="currentColor" type="text/css">
	.st0{fill:#010101;}
</style>
  <g fill="currentColor">
    <rect x="15.1" y="32.3" width="17.8" height="8.1" style="fill: rgb(80, 81, 85);"/>
    <path d="M 32.5 9.2 V 3.8 c 0 -2.1 -1.7 -3.8 -3.8 -3.8 h -9.4 c -2.1 0 -3.8 1.7 -3.8 3.8 v 5.4 c -4.9 2.9 -8.2 8.2 -8.2 14.3 v 19.1 c 0 3 2.4 5.4 5.4 5.4 h 22.5 c 3 0 5.4 -2.4 5.4 -5.4 V 23.5 C 40.6 17.4 37.4 12.1 32.5 9.2 Z M 18.8 3.8 c 0 -0.3 0.2 -0.5 0.5 -0.5 h 9.4 c 0.3 0 0.5 0.2 0.5 0.5 v 3.9 c -1.6 -0.5 -3.4 -0.9 -5.2 -0.9 c -1.8 0 -3.6 0.3 -5.2 0.9 V 3.8 Z M 35 41.5 c 0 0.6 -0.5 1.1 -1.1 1.1 H 14 c -0.6 0 -1.1 -0.5 -1.1 -1.1 V 31.2 c 0 -0.6 0.5 -1.1 1.1 -1.1 H 34 c 0.6 0 1.1 0.5 1.1 1.1 V 41.5 Z M 34.7 21.4 h -20 c -0.6 0 -1.1 -0.5 -1.1 -1.1 s 0.5 -1.1 1.1 -1.1 h 20 c 0.6 0 1.1 0.5 1.1 1.1 S 35.3 21.4 34.7 21.4 Z" style="fill: rgb(80, 81, 85);"/>
    <rect x="42.8" y="25.6" width="5.2" height="15.6" style="fill: rgb(80, 81, 85);"/>
    <rect y="25.6" width="5.2" height="15.6" style="fill: rgb(80, 81, 85);"/>
    <path d="M 11.8 9.2 l -0.6 -2.5 C 11 5.5 9.9 4.6 8.6 4.6 c -1.7 0 -3 1.6 -2.6 3.3 l 1.5 6.6 C 8.6 12.5 10 10.7 11.8 9.2 Z" style="fill: rgb(80, 81, 85);"/>
    <path d="M 39.4 4.6 L 39.4 4.6 c -1.3 0 -2.3 0.9 -2.6 2.1 l -0.6 2.5 c 1.7 1.5 3.2 3.3 4.3 5.3 L 42 7.9 C 42.4 6.2 41.1 4.6 39.4 4.6 Z" style="fill: rgb(80, 81, 85);"/>
  </g>
</svg>