<?xml version="1.0" encoding="utf-8"?>
<svg style="max-width: 100%;" viewBox="0 0 48 48" x="0px" y="0px" height="100%" version="1.1" xmlns="http://www.w3.org/2000/svg">
  <style fill="currentColor" type="text/css">
	.st0{fill:#010101;}
</style>
  <path d="M 47.4 24.6 c -0.8 -0.8 -2 -0.8 -2.8 0 L 30.9 38.3 H 17 V 13 h 14 V 9 L 15.5 0 L 0 9 v 4 h 14 v 25.3 H 2 c -1.1 0 -2 0.9 -2 2 s 0.9 2 2 2 h 5.4 l -4 4 c -0.4 0.4 -0.4 1 0 1.4 s 1 0.4 1.4 0 l 5.4 -5.4 h 15 l 5.4 5.4 c 0.4 0.4 1 0.4 1.4 0 s 0.4 -1 0 -1.4 l -4 -4 h 3.7 c 0.5 0 1 -0.2 1.4 -0.6 l 14.3 -14.3 C 48.2 26.6 48.2 25.4 47.4 24.6 Z" style="fill: rgb(80, 81, 85);"/>
</svg>