<?xml version="1.0" encoding="utf-8"?>
<svg style="max-width: 100%;" viewBox="0 0 48 48" x="0px" y="0px" height="100%" version="1.1" xmlns="http://www.w3.org/2000/svg">
  <style fill="currentColor" type="text/css">
	.st0{fill:#010101;}
</style>
  <g fill="currentColor">
    <path d="M 45 11.6 H 34.2 L 32.6 8 c -0.5 -1.1 -1.6 -1.8 -2.7 -1.8 H 18.1 c -1.2 0 -2.3 0.7 -2.7 1.8 l -1.6 3.6 h -4 V 9.2 H 5.3 v 2.4 H 3 c -1.7 0 -3 1.3 -3 3 v 24.1 c 0 1.7 1.3 3 3 3 h 42 c 1.7 0 3 -1.3 3 -3 V 14.6 C 48 13 46.7 11.6 45 11.6 Z M 19.2 8.7 h 9.5 c 0.6 0 1 0.4 1 1 s -0.4 1 -1 1 h -9.5 c -0.6 0 -1 -0.4 -1 -1 S 18.7 8.7 19.2 8.7 Z M 24 38.1 c -6.3 0 -11.4 -5.1 -11.4 -11.4 S 17.7 15.3 24 15.3 c 6.3 0 11.4 5.1 11.4 11.4 S 30.3 38.1 24 38.1 Z M 41.3 21 c -1 0 -1.9 -0.8 -1.9 -1.9 s 0.8 -1.9 1.9 -1.9 s 1.9 0.8 1.9 1.9 S 42.3 21 41.3 21 Z" style="fill: rgb(80, 81, 85);"/>
    <path d="M 24 17.2 c -5.2 0 -9.5 4.3 -9.5 9.5 s 4.3 9.5 9.5 9.5 s 9.5 -4.3 9.5 -9.5 S 29.2 17.2 24 17.2 Z M 29.1 24.8 c -0.4 0.4 -1.5 0.2 -2.3 -0.6 c -0.8 -0.8 -1.1 -1.8 -0.6 -2.3 c 0.4 -0.4 1.5 -0.2 2.3 0.6 C 29.3 23.3 29.6 24.3 29.1 24.8 Z" style="fill: rgb(80, 81, 85);"/>
  </g>
</svg>