<?xml version="1.0" encoding="utf-8"?>
<svg style="max-width: 100%;" viewBox="0 0 48 48" x="0px" y="0px" height="100%" version="1.1" xmlns="http://www.w3.org/2000/svg">
  <style fill="currentColor" type="text/css">
	.st0{fill:#010101;}
</style>
  <g fill="currentColor">
    <path d="M 1.2 27.4 h 45.3 c 0.7 0 1.2 -0.5 1.2 -1.2 c 0 -0.7 -0.5 -1.2 -1.2 -1.2 H 1.2 c -0.7 0 -1.2 0.5 -1.2 1.2 C 0 26.8 0.5 27.4 1.2 27.4 Z" style="fill: rgb(80, 81, 85);"/>
    <path d="M 47.7 45 c -0.4 -0.4 -1 -0.4 -1.4 0 c -1.4 1.4 -3.7 1.4 -5.2 0 c -1.1 -1.1 -2.5 -1.7 -4 -1.7 s -2.9 0.6 -4 1.7 c -1.4 1.4 -3.7 1.4 -5.2 0 c -1.1 -1.1 -2.5 -1.7 -4 -1.7 c -1.5 0 -2.9 0.6 -4 1.7 c -1.4 1.4 -3.7 1.4 -5.2 0 c -1.1 -1.1 -2.5 -1.7 -4 -1.7 s -2.9 0.6 -4 1.7 c -1.4 1.4 -3.7 1.4 -5.2 0 c -0.4 -0.4 -1 -0.4 -1.4 0 s -0.4 1 0 1.4 c 2.2 2.2 5.8 2.2 8 0 c 1.4 -1.4 3.8 -1.4 5.2 0 c 1.1 1.1 2.5 1.7 4 1.7 s 2.9 -0.6 4 -1.7 c 1.4 -1.4 3.8 -1.4 5.2 0 c 2.2 2.2 5.8 2.2 8 0 c 1.4 -1.4 3.8 -1.4 5.2 0 c 2.2 2.2 5.8 2.2 8 0 C 48.1 46 48.1 45.4 47.7 45 Z" style="fill: rgb(80, 81, 85);"/>
    <polygon points="28.5,17.1 19.8,17.1 19.8,4.7 15.5,4.7 15.5,17.1 12.3,17.1 12.3,0 8.1,0 8.1,17.1 5.6,17.1 5.6,22.9 28.5,22.9" style="fill: rgb(80, 81, 85);"/>
    <path d="M 4.9 41 h 22.3 c 8 0 15.3 -4.7 18.5 -12 H 1.9 l 0 9 C 1.9 39.6 3.3 41 4.9 41 Z M 38 30.4 c 0.9 0 1.7 0.8 1.7 1.7 c 0 0.9 -0.8 1.7 -1.7 1.7 c -0.9 0 -1.7 -0.8 -1.7 -1.7 C 36.3 31.2 37 30.4 38 30.4 Z M 32 30.4 c 0.9 0 1.7 0.8 1.7 1.7 c 0 0.9 -0.8 1.7 -1.7 1.7 s -1.7 -0.8 -1.7 -1.7 C 30.3 31.2 31.1 30.4 32 30.4 Z" style="fill: rgb(80, 81, 85);"/>
  </g>
</svg>