<?xml version="1.0" encoding="utf-8"?>
<svg style="max-width: 100%;" enable-background="new 0 0 100 100" viewBox="0 0 100 100" x="0px" y="0px" height="100%" version="1.1" xmlns="http://www.w3.org/2000/svg">
  <path d="M 64.8 41 L 39.4 8.3 c -0.2 -0.2 -0.5 -0.4 -0.8 -0.4 H 28.2 c -0.4 0 -0.7 0.4 -0.6 0.8 L 39 41.6 L 18.9 42 l -10 -12.4 c -0.2 -0.2 -0.5 -0.4 -0.8 -0.4 H 1.4 c -0.4 0 -0.7 0.4 -0.6 0.9 l 7.8 19.6 c 0.1 0.3 0.1 0.5 0 0.8 L 0.8 69.9 c -0.2 0.4 0.1 0.9 0.6 0.9 h 6.7 c 0.3 0 0.6 -0.1 0.8 -0.4 l 9.9 -12.3 l 20.1 0.4 L 27.6 91.3 c -0.1 0.4 0.2 0.8 0.6 0.8 h 10.4 c 0.3 0 0.6 -0.1 0.8 -0.4 l 25.4 -32.7 L 89 59.5 c 5.2 0.1 10 -3.8 10.2 -9 c 0.3 -5.5 -4.2 -10.1 -9.7 -10 L 64.8 41 Z" style="fill: rgb(80, 81, 85);"/>
</svg>