<?xml version="1.0" encoding="utf-8"?>
<svg style="max-width: 100%;" enable-background="new 0 0 512 512" viewBox="0 0 512 512" x="0px" y="0px" height="100%" version="1.1" xmlns="http://www.w3.org/2000/svg">
  <g fill="currentColor">
    <path d="M 318.168 0 H 10.66 v 512 h 383.992 V 76.5 L 318.168 0 Z M 319.996 32 l 42.656 42.664 h -42.656 V 32 Z M 31.996 490.656 V 21.336 h 266.656 V 96 h 74.688 v 394.656 H 31.996 Z" style="fill: rgb(20, 169, 238);"/>
    <path d="M 319.996 373.344 h -64 c -5.891 0 -10.664 4.766 -10.664 10.656 s 4.773 10.656 10.664 10.656 h 64 c 5.891 0 10.656 -4.766 10.656 -10.656 S 325.887 373.344 319.996 373.344 Z" style="fill: rgb(20, 169, 238);"/>
    <path d="M 319.996 192 H 85.332 c -5.898 0 -10.672 4.773 -10.672 10.664 s 4.773 10.672 10.672 10.672 h 234.664 c 5.891 0 10.656 -4.781 10.656 -10.672 S 325.887 192 319.996 192 Z" style="fill: rgb(20, 169, 238);"/>
    <path d="M 319.996 256 H 85.332 c -5.898 0 -10.672 4.773 -10.672 10.664 c 0 5.898 4.773 10.68 10.672 10.68 h 234.664 c 5.891 0 10.656 -4.781 10.656 -10.68 C 330.652 260.773 325.887 256 319.996 256 Z" style="fill: rgb(20, 169, 238);"/>
    <path d="M 85.332 149.336 H 202.66 c 5.891 0 10.672 -4.781 10.672 -10.672 S 208.551 128 202.66 128 H 85.332 c -5.898 0 -10.672 4.773 -10.672 10.664 S 79.434 149.336 85.332 149.336 Z" style="fill: rgb(20, 169, 238);"/>
    <path d="M 127.996 320 c -29.453 0 -53.336 23.875 -53.336 53.344 c 0 17.438 8.383 32.938 21.336 42.656 v 53.344 l 32 -10.688 l 32 10.688 V 416 c 12.953 -9.719 21.336 -25.219 21.336 -42.656 C 181.332 343.875 157.449 320 127.996 320 Z M 138.66 439.734 l -3.922 -1.297 l -6.742 -2.25 l -6.75 2.25 l -3.914 1.297 v -14.141 c 3.445 0.703 7.008 1.062 10.664 1.062 s 7.219 -0.359 10.664 -1.062 V 439.734 Z M 127.996 405.344 c -17.648 0 -32 -14.375 -32 -32 c 0 -17.656 14.352 -32 32 -32 s 32 14.344 32 32 C 159.996 390.969 145.645 405.344 127.996 405.344 Z" style="fill: rgb(20, 169, 238);"/>
    <path d="M 501.34 128 c 0 -23.57 -19.109 -42.672 -42.688 -42.672 c -23.562 0 -42.656 19.102 -42.656 42.672 v 288 h 13.234 l -13.234 46.219 l 42.656 28.438 l 42.688 -28.438 L 488.09 416 h 13.25 V 128 Z M 437.34 128 c 0 -11.766 9.562 -21.336 21.312 -21.336 c 11.781 0 21.344 9.57 21.344 21.336 v 266.656 H 437.34 V 128 Z M 476.527 453.125 l -17.875 11.906 l -17.859 -11.906 L 451.418 416 h 14.484 L 476.527 453.125 Z" style="fill: rgb(20, 169, 238);"/>
    <path d="M 127.996 362.656 c -5.891 0 -10.664 4.781 -10.664 10.688 c 0 5.875 4.773 10.656 10.664 10.656 s 10.664 -4.781 10.664 -10.656 C 138.66 367.438 133.887 362.656 127.996 362.656 Z" style="fill: rgb(20, 169, 238);"/>
  </g>
</svg>