<?xml version="1.0" encoding="utf-8"?>
<svg style="max-width: 100%;" viewBox="0 0 100 100" x="0px" y="0px" height="100%" version="1.1" xmlns="http://www.w3.org/2000/svg">
  <g fill="currentColor">
    <path d="M 45.8031 32.8769 c -2.11581 0 -4.06841 -0.82784 -5.65329 -2.39798 c -3.48833 -3.45588 -4.41842 -9.42871 -4.41842 -12.4136 c 0 -0.86815 0.10815 -1.7304 0.33428 -2.63394 c 0.22417 -0.90256 1.15229 -1.45019 2.04108 -1.22603 c 0.90256 0.22613 1.45118 1.13951 1.22701 2.04207 c -0.15928 0.63317 -0.23596 1.22799 -0.23596 1.8179 c 0 3.29562 1.17588 7.79564 3.42147 10.0216 c 0.96745 0.95664 2.03912 1.42266 3.28186 1.42266 c 0.01376 0 0.0295 0 0.04523 0 c 5.07322 -0.04719 6.78001 -7.87921 6.78001 -11.4442 c 0 -0.58991 -0.07669 -1.18473 -0.23596 -1.8179 c -0.22417 -0.90256 0.32445 -1.81594 1.22701 -2.04207 c 0.89076 -0.21925 1.81692 0.32445 2.04108 1.22603 c 0.22613 0.90354 0.33428 1.76579 0.33428 2.63394 c 0 6.11145 -3.13831 14.7467 -10.115 14.8106 C 45.8523 32.8769 45.8267 32.8769 45.8031 32.8769 Z" style="fill: rgb(20, 169, 238);"/>
    <path d="M 43.9784 99.9997 h -4.85102 c -1.99782 0 -3.624 -1.60062 -3.624 -3.56698 V 44.1501 c 0 -0.93009 0.75312 -1.68419 1.6832 -1.68419 c 0.93009 0 1.68321 0.7541 1.68321 1.68419 v 52.2826 c 0 0.08456 0.09045 0.20057 0.25759 0.20057 h 4.85102 c 0.09635 0 0.20057 -0.10422 0.20057 -0.20057 v -25.3995 c 0 -0.93008 0.75312 -1.6832 1.68321 -1.6832 c 0.93009 0 1.6832 0.75312 1.6832 1.6832 v 25.3995 C 47.5453 98.399 45.9447 99.9997 43.9784 99.9997 Z" style="fill: rgb(20, 169, 238);"/>
    <path d="M 19.6053 47.3749 c -0.33625 0 -0.67643 -0.10127 -0.97138 -0.31069 c -0.75902 -0.5378 -0.93795 -1.58882 -0.40114 -2.34685 l 3.76952 -5.30918 c 0.25956 -0.36574 0.65283 -0.61252 1.0933 -0.68626 c 0.44046 -0.07275 0.89666 0.03146 1.25847 0.29102 l 3.52962 2.52186 c 0.32642 -0.41195 0.66266 -0.85439 1.00874 -1.3096 c 2.28098 -3.0046 5.12237 -6.74462 9.31072 -7.05826 c 1.2801 -0.1111 2.22985 -0.69216 2.95938 -3.23565 c 0.25366 -0.89371 1.18375 -1.41381 2.08237 -1.15524 c 0.89273 0.25563 1.40988 1.18768 1.15425 2.08139 c -0.37361 1.30665 -1.51213 5.28263 -5.92465 5.66607 c -2.69588 0.20253 -4.92967 3.14323 -6.90193 5.73883 c -0.74328 0.97826 -1.44528 1.90344 -2.16496 2.68507 c -0.57614 0.62432 -1.52196 0.72264 -2.21806 0.23006 l -3.4195 -2.44321 l -2.7883 3.92978 C 20.6534 47.1271 20.1323 47.3749 19.6053 47.3749 Z" style="fill: rgb(20, 169, 238);"/>
    <path d="M 27.8267 54.736 c -1.76383 0 -3.30545 -0.68822 -4.45774 -1.99389 l -5.04765 -5.96398 c -0.59974 -0.70985 -0.51126 -1.77267 0.1986 -2.37241 c 0.70986 -0.60072 1.76973 -0.51322 2.3734 0.19762 l 5.02209 5.93645 c 0.49159 0.55648 1.10706 0.8298 1.9113 0.8298 c 0.75508 0 1.35679 -0.28512 1.83855 -0.86913 l 6.2314 -7.43187 c 0.59974 -0.71477 1.66354 -0.80326 2.37143 -0.20843 c 0.71379 0.59679 0.80621 1.65961 0.20844 2.37143 l -6.22157 7.42007 C 31.1518 53.9927 29.5748 54.736 27.8267 54.736 Z" style="fill: rgb(20, 169, 238);"/>
    <path d="M 20.0635 46.6896 c -2.41076 0 -4.43021 -1.82183 -4.69764 -4.23751 c -0.27136 -2.40781 1.2978 -4.618 3.6476 -5.14007 c 2.38323 -0.53092 4.76843 0.7718 5.55104 3.03311 c 0.30479 0.87897 -0.16124 1.83757 -1.04021 2.14137 c -0.88093 0.30774 -1.83855 -0.16124 -2.14137 -1.0402 c -0.22416 -0.65283 -0.91043 -1.0117 -1.63798 -0.84652 c -0.67839 0.15042 -1.11099 0.7718 -1.03234 1.4787 c 0.08062 0.72067 0.6489 1.24274 1.35089 1.24274 c 0.93009 0 1.6832 0.7541 1.6832 1.68419 C 21.7467 45.9355 20.9935 46.6896 20.0635 46.6896 Z" style="fill: rgb(20, 169, 238);"/>
    <path d="M 62.0158 49.7139 c -0.93009 0 -1.68321 -0.75312 -1.68321 -1.6832 v -6.44967 c 0 -2.6595 -2.16496 -4.8225 -4.82349 -4.8225 c -0.93009 0 -1.6832 -0.7541 -1.6832 -1.68419 s 0.75312 -1.68419 1.6832 -1.68419 c 4.51674 0 8.1899 3.67415 8.1899 8.19088 v 6.44967 C 63.699 48.9608 62.9459 49.7139 62.0158 49.7139 Z" style="fill: rgb(20, 169, 238);"/>
    <path d="M 52.6539 99.9997 H 47.7459 c -1.96636 0 -3.56698 -1.60062 -3.56698 -3.56698 v -25.3995 c 0 -0.93008 0.75312 -1.6832 1.68321 -1.6832 c 0.93009 0 1.6832 0.75312 1.6832 1.6832 v 25.3995 c 0 0.09635 0.10422 0.20057 0.20057 0.20057 h 4.90804 c 0.09635 0 0.20057 -0.10422 0.20057 -0.20057 V 44.1501 c 0 -0.93009 0.75312 -1.68419 1.6832 -1.68419 c 0.93009 0 1.68321 0.7541 1.68321 1.68419 v 52.2826 C 56.2209 98.399 54.6203 99.9997 52.6539 99.9997 Z" style="fill: rgb(20, 169, 238);"/>
    <path d="M 60.018 69.4621 h -5.48025 c -0.93009 0 -1.6832 -0.75311 -1.6832 -1.6832 s 0.75312 -1.6832 1.6832 -1.6832 h 5.48025 c 0.15534 0 0.31462 -0.15928 0.31462 -0.31462 V 48.0877 c 0 -0.93009 0.75312 -1.68419 1.68321 -1.68419 c 0.93009 0 1.6832 0.7541 1.6832 1.68419 v 17.6933 C 63.699 67.8103 62.0472 69.4621 60.018 69.4621 Z" style="fill: rgb(20, 169, 238);"/>
    <path d="M 56.8777 75.6836 h -2.33997 c -0.93009 0 -1.6832 -0.75312 -1.6832 -1.68321 c 0 -0.93008 0.75312 -1.6832 1.6832 -1.6832 h 2.33997 c 0.80227 0 1.45707 -0.62727 1.45707 -1.39808 v -3.14028 c 0 -0.93009 0.75312 -1.6832 1.6832 -1.6832 s 1.6832 0.75311 1.6832 1.6832 v 3.14028 C 61.7012 73.5462 59.5382 75.6836 56.8777 75.6836 Z" style="fill: rgb(20, 169, 238);"/>
    <path d="M 55.5091 36.7585 c -6.021 0 -7.06514 -2.08139 -8.06798 -5.50876 L 47.331 30.8722 c -0.26349 -0.89175 0.24383 -1.82872 1.13655 -2.09221 c 0.89273 -0.26841 1.82872 0.24579 2.09221 1.13656 l 0.11405 0.38836 c 0.76492 2.61428 0.90256 3.08522 4.83528 3.08522 c 0.93009 0 1.68321 0.7541 1.68321 1.68419 S 56.4392 36.7585 55.5091 36.7585 Z" style="fill: rgb(20, 169, 238);"/>
    <path d="M 55.6231 17.5806 c -0.15731 0 -0.32052 -0.02261 -0.47979 -0.06981 c -6.04656 -1.79627 -12.4648 -1.79726 -18.5664 0.00098 c -0.9006 0.25956 -1.82872 -0.24776 -2.09024 -1.13951 c -0.26349 -0.89175 0.2458 -1.82773 1.13852 -2.09123 c 6.72496 -1.98209 13.8078 -1.98111 20.4777 0.00098 c 0.89076 0.26546 1.40005 1.20243 1.13459 2.09417 C 57.0193 17.1077 56.3487 17.5806 55.6231 17.5806 Z" style="fill: rgb(20, 169, 238);"/>
    <path d="M 58.4193 21.1761 c -0.65283 0 -1.2742 -0.38246 -1.54753 -1.02054 c -0.36574 -0.85537 0.0295 -1.84445 0.88486 -2.21117 c 1.93687 -0.83079 2.80403 -1.76973 2.80403 -2.33309 c 0 -1.50132 -5.18923 -4.42333 -14.6986 -4.42333 s -14.6986 2.92201 -14.6986 4.42333 c 0 0.56336 0.86717 1.5023 2.80403 2.33309 c 0.85537 0.36673 1.25061 1.35581 0.88486 2.21117 c -0.36574 0.85537 -1.35482 1.25159 -2.21019 0.88388 c -4.21588 -1.80709 -4.84512 -4.17655 -4.84512 -5.42814 c 0 -5.11549 9.08656 -7.79171 18.065 -7.79171 s 18.065 2.67622 18.065 7.79171 c 0 1.25159 -0.62923 3.62106 -4.84512 5.42814 C 58.8657 21.1318 58.6415 21.1761 58.4193 21.1761 Z" style="fill: rgb(20, 169, 238);"/>
    <path d="M 55.049 12.2154 c -0.90256 0 -1.64978 -0.71576 -1.68124 -1.6252 c -0.14158 -4.04972 -3.4372 -7.22146 -7.5056 -7.22146 s -7.36403 3.17174 -7.5056 7.22146 c -0.03146 0.90944 -0.77868 1.6252 -1.68124 1.6252 c -0.02163 0 -0.04129 -0.00098 -0.06096 -0.00098 c -0.92812 -0.03244 -1.65567 -0.81211 -1.62421 -1.7422 c 0.2045 -5.87156 4.9808 -10.4719 10.872 -10.4719 s 10.6675 4.6003 10.872 10.4719 c 0.03146 0.93009 -0.69609 1.70975 -1.62421 1.7422 C 55.0903 12.2144 55.0706 12.2154 55.049 12.2154 Z" style="fill: rgb(20, 169, 238);"/>
    <path d="M 18.4078 99.9997 c -0.93009 0 -1.68321 -0.75311 -1.68321 -1.6832 V 51.4561 c 0 -0.93009 0.75312 -1.68321 1.68321 -1.68321 s 1.68321 0.75312 1.68321 1.68321 v 46.8604 C 20.091 99.2466 19.3379 99.9997 18.4078 99.9997 Z" style="fill: rgb(20, 169, 238);"/>
    <path d="M 18.4078 40.6401 c -0.93009 0 -1.68321 -0.7541 -1.68321 -1.68419 V 17.6091 c 0 -0.93009 0.75312 -1.68419 1.68321 -1.68419 s 1.68321 0.7541 1.68321 1.68419 v 21.3468 C 20.091 39.886 19.3379 40.6401 18.4078 40.6401 Z" style="fill: rgb(20, 169, 238);"/>
    <path d="M 1.68387 26.1992 c -0.6607 0 -1.28797 -0.39229 -1.55539 -1.04119 c -0.35591 -0.86028 0.05309 -1.84445 0.91239 -2.19938 l 16.7239 -6.90586 c 0.85537 -0.35689 1.84248 0.05408 2.19839 0.91337 c 0.35591 0.86028 -0.05309 1.84445 -0.91239 2.19938 L 2.32687 26.0713 C 2.11647 26.1579 1.89821 26.1992 1.68387 26.1992 Z" style="fill: rgb(20, 169, 238);"/>
    <path d="M 18.4078 33.106 c -0.21433 0 -0.4326 -0.04129 -0.643 -0.12782 L 1.04087 26.0713 c -0.8593 -0.35493 -1.2683 -1.34008 -0.91239 -2.19938 c 0.35395 -0.8593 1.33713 -1.26732 2.19839 -0.91338 l 16.7239 6.90685 c 0.8593 0.35493 1.2683 1.34008 0.91239 2.19938 C 19.6957 32.7137 19.0685 33.106 18.4078 33.106 Z" style="fill: rgb(20, 169, 238);"/>
    <path d="M 93.4638 99.9997 H 73.5446 c -0.93009 0 -1.68321 -0.75311 -1.68321 -1.6832 v -7.307 c 0 -0.93009 0.75312 -1.6832 1.68321 -1.6832 h 19.9192 c 0.93009 0 1.6832 0.75311 1.6832 1.6832 v 7.307 C 95.147 99.2466 94.3939 99.9997 93.4638 99.9997 Z M 75.2278 96.6333 h 16.5528 v -3.94059 H 75.2278 V 96.6333 Z" style="fill: rgb(20, 169, 238);"/>
    <path d="M 83.5337 92.6927 c -0.93008 0 -1.6832 -0.75311 -1.6832 -1.6832 V 41.2959 c 0 -0.93009 0.75312 -1.68419 1.6832 -1.68419 c 0.93009 0 1.6832 0.7541 1.6832 1.68419 v 49.7136 C 85.2169 91.9396 84.4638 92.6927 83.5337 92.6927 Z" style="fill: rgb(20, 169, 238);"/>
    <path d="M 92.7225 42.9801 H 72.6892 c -0.93009 0 -1.6832 -0.7541 -1.6832 -1.68419 V 31.0217 c 0 -0.93009 0.75311 -1.68419 1.6832 -1.68419 H 92.7225 c 0.4208 0 0.82784 0.15829 1.13852 0.4444 l 5.5943 5.13712 C 99.8034 35.2375 100 35.6869 100 36.1588 s -0.19663 0.92124 -0.54469 1.23979 l -5.5943 5.13712 C 93.5503 42.8218 93.1433 42.9801 92.7225 42.9801 Z M 74.3724 39.6117 h 17.6933 l 3.76165 -3.45293 l -3.76165 -3.45293 H 74.3724 V 39.6117 Z" style="fill: rgb(20, 169, 238);"/>
    <path d="M 83.5337 17.3525 c -0.93008 0 -1.6832 -0.7541 -1.6832 -1.68419 v -4.6239 c 0 -0.93009 0.75312 -1.68419 1.6832 -1.68419 c 0.93009 0 1.6832 0.7541 1.6832 1.68419 v 4.6239 C 85.2169 16.5984 84.4638 17.3525 83.5337 17.3525 Z" style="fill: rgb(20, 169, 238);"/>
    <path d="M 94.3782 27.6257 H 74.3429 c -0.42277 0 -0.82784 -0.15829 -1.13853 -0.4444 l -5.59233 -5.13614 c -0.34805 -0.31855 -0.54469 -0.76786 -0.54469 -1.23979 c 0 -0.47094 0.19664 -0.92124 0.54469 -1.23979 l 5.59233 -5.13712 c 0.31068 -0.28611 0.71576 -0.4444 1.13853 -0.4444 h 20.0353 c 0.93008 0 1.6832 0.7541 1.6832 1.68419 v 10.2733 C 96.0614 26.8717 95.3083 27.6257 94.3782 27.6257 Z M 74.9997 24.2574 h 17.6953 v -6.90488 h -17.6953 l -3.75968 3.45293 L 74.9997 24.2574 Z" style="fill: rgb(20, 169, 238);"/>
  </g>
</svg>