<?xml version="1.0" encoding="utf-8"?>
<svg style="max-width: 100%;" enable-background="new 0 0 32 32" viewBox="0 0 32 32" x="0px" y="0px" height="100%" version="1.1" xmlns="http://www.w3.org/2000/svg">
  <g fill="currentColor">
    <path clip-rule="evenodd" fill-rule="evenodd" d="M 8.202 24.576 C 7.934 24.576 7.801 24.576 7.533 24.443 C 7.132 24.309 6.864 23.908 6.73 23.506 L 1.111 7.184 C 0.978 6.649 1.111 5.98 1.646 5.579 C 2.182 5.178 2.851 5.178 3.252 5.579 L 9.005 10.128 L 15.159 5.178 C 15.56 4.776 16.229 4.776 16.63 5.178 L 19.574 7.72 C 20.109 8.121 20.109 8.924 19.707 9.459 C 19.574 9.726 19.306 9.86 18.905 9.86 C 18.637 9.86 18.236 9.86 17.968 9.593 L 15.694 7.72 L 9.674 12.803 C 9.272 13.071 8.603 13.071 8.202 12.803 L 4.59 9.86 L 8.737 21.633 L 28.537 5.713 C 29.072 5.311 29.741 5.311 30.143 5.713 C 30.678 6.114 30.811 6.783 30.678 7.318 L 24.925 23.64 C 24.791 24.175 24.39 24.443 23.855 24.576 C 23.721 24.576 23.587 24.576 23.453 24.576 C 23.052 24.576 22.784 24.443 22.517 24.175 L 19.038 21.366 C 18.771 21.232 18.637 20.964 18.637 20.563 C 18.637 20.295 18.637 19.894 18.905 19.626 C 19.038 19.359 19.306 19.225 19.707 19.225 C 19.975 19.225 20.376 19.225 20.644 19.493 L 23.186 21.499 L 27.333 9.726 L 9.138 24.309 C 9.005 24.309 9.005 24.309 9.005 24.443 C 8.871 24.443 8.871 24.576 8.737 24.576 C 8.603 24.576 8.336 24.576 8.202 24.576 Z" style="fill: rgb(255, 255, 255);"/>
  </g>
</svg>